HIERARCHY
ROOT base
{
	OFFSET 0.0 0.0 0.0
	CHANNELS 6 Xposition Yposition Zposition Zrotation Yrotation Xrotation
	JOINT root
	{
		OFFSET 0 0 0
		CHANNELS 6 Xposition Yposition Zposition Zrotation Yrotation Xrotation
		JOINT chest
		{
			OFFSET 0 4.72302 0
			CHANNELS 3 Zrotation Yrotation Xrotation
			JOINT neck
			{
				OFFSET 0 4.47788 0
				CHANNELS 3 Zrotation Yrotation Xrotation
				End Site
				{
					OFFSET 0.0 0.0 0.0
				}
			}
			JOINT right_shoulder
			{
				OFFSET -0.481 4.87 3.6622
				CHANNELS 3 Zrotation Yrotation Xrotation
				JOINT right_elbow
				{
					OFFSET 0 -5.49576 0
					CHANNELS 3 Zrotation Yrotation Xrotation
					JOINT right_wrist
					{
						OFFSET 0 -5.17894 0
						CHANNELS 3 Zrotation Yrotation Xrotation
						End Site
						{
							OFFSET 0.0 0.0 0.0
						}
					}
				}
			}
			JOINT left_shoulder
			{
				OFFSET -0.481 4.87 -3.6622
				CHANNELS 3 Zrotation Yrotation Xrotation
				JOINT left_elbow
				{
					OFFSET 0 -5.49576 0
					CHANNELS 3 Zrotation Yrotation Xrotation
					JOINT left_wrist
					{
						OFFSET 0 -5.17894 0
						CHANNELS 3 Zrotation Yrotation Xrotation
						End Site
						{
							OFFSET 0.0 0.0 0.0
						}
					}
				}
			}
		}
		JOINT right_hip
		{
			OFFSET 0 0 1.69774
			CHANNELS 3 Zrotation Yrotation Xrotation
			JOINT right_knee
			{
				OFFSET 0 -8.43092 0
				CHANNELS 3 Zrotation Yrotation Xrotation
				JOINT right_ankle
				{
					OFFSET 0 -8.1974 0
					CHANNELS 3 Zrotation Yrotation Xrotation
					End Site
					{
						OFFSET 0.0 0.0 0.0
					}
				}
			}
		}
		JOINT left_hip
		{
			OFFSET 0 0 -1.69774
			CHANNELS 3 Zrotation Yrotation Xrotation
			JOINT left_knee
			{
				OFFSET 0 -8.43092 0
				CHANNELS 3 Zrotation Yrotation Xrotation
				JOINT left_ankle
				{
					OFFSET 0 -8.1974 0
					CHANNELS 3 Zrotation Yrotation Xrotation
					End Site
					{
						OFFSET 0.0 0.0 0.0
					}
				}
			}
		}
	}
	JOINT red_arrow
	{
		OFFSET 0 0 0
		CHANNELS 3 Zrotation Yrotation Xrotation
		End Site
		{
			OFFSET 0.0 0.0 0.0
		}
	}
	JOINT blue_arrow
	{
		OFFSET 0 0 0
		CHANNELS 3 Zrotation Yrotation Xrotation
		End Site
		{
			OFFSET 0.0 0.0 0.0
		}
	}
}
MOTION
Frames: 9
Frame Time: 0.0333333333333333
0 18.08466 0 0 0 0 0 0 0 0 -90 0 0 0 0 0 0 0 0 0 -90 0 0 0 0 0 0 0 0 90 0 0 0 0 0 0 0 0 0 0 0 0 0 0 0 0 0 0 0 0 0 0 0 0 0 0 0 0 0 0
-0.347827269881964 0 0.00323406141251325 0 -1.3669862243945 0 0 17.9381976604462 0 -3.87902592187249 -4.65901564667507E-15 2.78659616350754 -1.12916483707859 0.597430201491507 0.776455439322372 -16.9205919844616 -5.06556822357077 2.21446749557203 11.3361143941645 -9.42841139560764 -12.6968719516376 10.9044294533239 0 0 0 0 0 10.3382618321731 -7.80388220494329 14.8435168262328 2.26115482874364 0 0 0 0 0 0.636242827022372 -1.43905582468491 -2.54965677546551 6.67110647595468E-05 0 0 -2.21450161309815 -7.99249683598911 0.89438372157301 2.04867626246696 -0.824863466485044 -1.47210933860876 0.037240302443652 0 0 -6.23152830436447 9.55340945737352 1.02368048241702 0 0 0 0 0 0
-0.647125186026096 0 -0.0108970483765006 0 -1.37728788698986 0 0 17.9395218133926 0 -4.71948163914275 -0.195067960344881 2.23161045762542 -6.28012907108624 0.696758230674938 2.06374476875152 -18.2737693137102 -6.72390249055214 4.11025097826901 11.5859822814081 -8.60608908902982 -26.0843323433889 1.68474246480328 0 0 0 0 0 2.79151725392341 -9.81345769649382 26.7314391168275 -0.000127014931934166 0 0 0 0 0 3.11028368846262 -1.82838280558422 -1.97818072179589 -0.598685930988893 0 0 -3.3524276255128 -7.40467003666735 0.569297609255852 4.42379808826476 0.864670208911147 -0.843186758991584 0.00484037297087755 0 0 -7.09024584522638 7.55375048917951 1.60115059888649 0 0 0 0 0 0
-1.08629968762398 0 -0.0878603491932154 0 -1.3220988806928 0 0 17.8344956994057 0 -7.13714020338942 1.04046801832278 1.88351653330663 -11.494457185635 0.854712476166388 3.77484084181491 -18.7618898673316 -9.38597035537109 6.91685724389995 7.63472359393305 -12.3041106733707 -40.5331098984744 -8.45702752114112E-05 0 0 0 0 0 -7.61543098157999 -7.60961307852523 39.0517050875493 -4.1718267090384E-08 0 0 0 0 0 6.94035600834053 -3.47236992724207 -1.9841643875226 -0.869323372309921 0 0 -2.06769899718744 -6.81541508272612 0.409877292816755 9.99054521272201 3.38218283663354 -1.26653366051695 0.00066184252704505 0 0 -7.7979436055457 5.41251770749199 3.66258913013492 0 0 0 0 0 0
-1.57246133089066 0 -0.172593158483505 0 -1.24247080445846 0 0 17.6387388825417 0 -9.41692737571307 1.49255423971318 1.18897222570599 -17.1045500915537 2.21651354079873 5.69393697666013 -18.3071957569563 -10.2907719794507 9.54744165704916 3.51374454419599 -20.8542807710277 -53.5045108035631 -0.151003849883052 0 0 0 0 0 -16.1996446431212 0.243230845471344 47.0456795891474 -0.0010979611424924 0 0 0 0 0 13.3413544829756 -5.07327424100751 -1.9726660852643 -6.34617464466897 0 0 2.57263580415526 -5.16819351874772 0.144148834467043 16.1181906819247 6.8430998324518 -1.35566251520586 0.000101534785962494 0 0 -9.02306507020924 3.83987007234926 4.85883639079087 0 0 0 0 0 0
-2.14586764574051 0 -0.2227145338431 0 -1.13358001051323 0 0 17.5105710625649 0 -12.4073622880254 2.02064520675672 0.347847966916305 -21.5705526592795 3.09908101926272 6.63832078057157 -17.6563288850584 -9.94837945833614 12.0554354919976 0.0934586757637695 -31.2992881910484 -59.2839237516054 -1.27843259514522E-05 0 0 0 0 0 -21.2806194721009 10.9740638007027 48.574482593957 -3.65497741330309E-05 0 0 0 0 0 22.0093185029381 -6.86742781113232 -2.24410390655547 -14.0151639787254 0 0 4.55665253291551 -3.04393617928635 0.305103911942955 25.4911715437448 10.8117292197773 -0.9428447843856 -2.35345843207402 0 0 -11.9466725582725 2.95263191104945 6.59894072390558 0 0 0 0 0 0
-2.84575515389442 0 -0.26814401880838 0 -1.0324861046511 0 0 17.2669335484505 0 -16.5891741184159 1.84089072543682 -0.267131523422281 -24.7309384962809 3.46268757298821 6.64012680237982 -14.7842933040111 -8.97235861267109 12.6041484944973 -3.02104007836962 -41.6699410190062 -60.7850531903481 -5.08897868320545E-06 0 0 0 0 0 -24.5357550039532 24.1562310712922 46.5382597935122 -0.00178456868107099 0 0 0 0 0 35.2215941494174 -7.55705015464363 -3.04501685362586 -26.7650200457802 0 0 5.06530243198261 -1.4890470580606 0.283652524103765 38.9944541231235 13.0561981690646 0.497469039226473 -9.53241605757125 0 0 -16.204416083957 3.21846115312485 8.50183760678699 0 0 0 0 0 0
-3.49990282654762 0 -0.270318540371954 0 -0.9380015540994 0 0 16.8809114098549 0 -20.4828695581613 1.68177523652532 -1.17161276542884 -27.3874606485397 3.324638003088 6.8144297667087 -11.2922983464606 -7.22713622296609 11.8486147137552 -10.6917311177849 -49.3262053339115 -53.0537382467739 -6.79652638281964E-06 0 0 0 0 0 -28.2548539310184 35.252082542167 40.5337908307539 -0.0216523366641218 0 0 0 0 0 47.7571429428256 -5.34075979672775 -3.00810994734493 -39.0192007470308 0 0 3.49041033906208 -0.619436286702552 0.837308935298181 52.9214066842086 13.1745563702617 2.99658436291313 -19.9085431851994 0 0 -17.1812172348618 3.3495985513161 8.84955103059511 0 0 0 0 0 0
-4.0223218023777 0 -0.305079116672277 0 -0.914956027554537 0 0 16.3076319217682 0 -23.7940561737009 0.400648416922201 -1.37179566141669 -28.590250842443 3.120232930592 6.33395743419905 -6.91769118426218 -5.61056468083103 8.78616651598943 -20.9333739307975 -52.1307784256618 -39.2701958181982 -3.46394751052487E-08 0 0 0 0 0 -30.4268259793398 44.851064819721 32.4711770629684 -2.84446867427239E-06 0 0 0 0 0 60.1589052515533 -0.709248918983462 -1.59678088020101 -51.1082496722652 0 0 0.62068969359262 -0.203562864300504 1.49926064213902 64.7709902814858 11.2311593381715 5.47707830756677 -32.6452306475344 0 0 -18.1415880676608 3.81733352169614 8.92141854969069 0 0 0 0 0 0
